HIERARCHY
ROOT Pelvis
{
	OFFSET 0.32 0 0
	CHANNELS 6 Xposition Yposition Zposition Zrotation Xrotation Yrotation
	JOINT SpineShoulder
	{
		OFFSET 0 6.740009 0
		CHANNELS 3 Zrotation Xrotation Yrotation
		JOINT Neck
		{
			OFFSET 0 2.640004 0
			CHANNELS 3 Zrotation Xrotation Yrotation
			End Site
			{
				OFFSET 0 4.719998 0
			}
		}
		JOINT ShoulderLeft
		{
			OFFSET 3.340001 0.6799955 0
			CHANNELS 3 Zrotation Xrotation Yrotation
			JOINT ElbowLeft
			{
				OFFSET 5.307964 0 0
				CHANNELS 3 Zrotation Xrotation Yrotation
				End Site
				{
					OFFSET 4.786495 0 0
				}
			}
		}
		JOINT ShoulderRight
		{
			OFFSET -3.300001 0.6799955 0
			CHANNELS 3 Zrotation Xrotation Yrotation
			JOINT ElbowRight
			{
				OFFSET -5.307964 0 0
				CHANNELS 3 Zrotation Xrotation Yrotation
				End Site
				{
					OFFSET -4.786495 0 0
				}
			}
		}
	}
	JOINT HipLeft
	{
		OFFSET 2.560001 -1.599997 0
		CHANNELS 3 Zrotation Xrotation Yrotation
		JOINT KneeLeft
		{
			OFFSET 0 -8.508625 0
			CHANNELS 3 Zrotation Xrotation Yrotation
			End Site
			{
				OFFSET 0 -7.880188 0
			}
		}
	}
	JOINT HipRight
	{
		OFFSET -2.560001 -1.599997 0
		CHANNELS 3 Zrotation Xrotation Yrotation
		JOINT KneeRight
		{
			OFFSET 0 -8.508625 0
			CHANNELS 3 Zrotation Xrotation Yrotation
			End Site
			{
				OFFSET 0 -7.880188 0
			}
		}
	}
}
MOTION
Frames: 39
Frame Time: 0.03333334
0 0 0 0 0 0 0 0 0 0 0 0 0 0 0 0 0 0 0 0 0 0 0 0 0 0 0 0 0 0 0 0 0 0 0 0
0 0 0 -2.655586 14.18349 4.518101 -0.4375435 8.847491 358.0783 -357.2332 357.0384 0.5607083 -60.5942 345.502 350.687 -41.25365 34.39068 334.744 -302.9457 337.4894 7.460507 -310.018 33.67033 17.56462 -17.55757 305.2304 348.5575 -351.3261 69.3651 359.5826 -4.639887 303.8427 356.3481 -3.977588 77.60785 6.150322
0 0 0 -3.073219 14.4902 2.32215 -359.7257 11.81354 359.6775 -357.6013 357.1131 0.5563661 -59.03102 340.7514 350.2772 -48.73771 39.60585 336.1415 -307.1119 335.9785 9.447475 -299.8788 35.3554 17.44538 -25.62257 303.9568 342.6829 -331.5927 70.45216 345.5176 -3.143528 302.6139 356.7199 -12.73948 78.5854 14.05354
0 0 0 -2.192288 12.5052 355.5714 -1.45842 9.917295 1.627805 -356.1107 357.5916 0.7591935 -63.44147 336.3659 352.5919 -39.79552 46.0185 335.3618 -304.5873 345.5995 5.947407 -312.3554 35.10415 28.86243 -20.73599 300.5264 344.8942 -344.9868 75.78426 354.8102 -6.27429 299.8038 354.1978 -337.8217 82.38256 342.6647
0 0 0 -3.98719 14.30753 357.7307 -0.1532681 8.315185 0.673762 -354.4456 357.629 1.117301 -61.5463 337.5231 352.5858 -47.41744 47.07785 337.321 -307.5294 344.0872 6.382201 -311.5914 35.20189 29.7566 -9.309956 297.2415 351.0073 -10.41185 75.13135 14.15332 -6.314352 294.8803 352.7968 -316.0757 83.57087 321.5929
0 0 0 -3.966184 13.16325 356.2691 -0.5553408 10.242 1.466872 -354.0589 356.6969 1.239304 -62.16982 335.8083 352.1766 -45.41723 47.67236 337.1701 -307.8442 345.0524 8.019256 -312.4652 34.21808 31.61506 -18.93882 300.6577 345.1202 -342.023 75.6181 352.248 -3.864895 297.8847 354.661 -339.6954 81.36806 344.1721
0 0 0 -4.146691 11.70233 356.451 -0.5018058 11.36771 1.894081 -353.2933 358.1775 1.383554 -61.73625 337.1179 352.0882 -48.91724 51.43993 335.3038 -306.2252 345.3442 9.441346 -316.1203 37.33974 35.74526 -20.01213 300.7099 344.5408 -340.8967 77.59406 351.5483 -4.899096 296.0751 353.7714 -285.6647 87.18151 290.4617
0 0 0 -4.467305 12.18637 358.7249 -1.799744 10.77747 1.317952 -357.3895 358.9209 0.4947982 -58.33147 339.8418 351.6752 -50.25807 49.03504 334.2422 -307.2565 342.1896 8.298049 -307.329 35.41706 27.00998 -21.001 301.1101 344.0018 -338.4063 76.37305 349.7039 -3.995565 291.4899 354.0202 -263.8121 85.32936 268.2828
0 0 0 -5.780011 14.24958 1.225834 -359.7487 11.03594 0.8697698 -355.1102 2.745205 1.112584 -62.43154 342.0145 349.1687 -26.75694 53.1851 312.9393 -308.8231 337.7863 9.895509 -307.2091 38.47876 28.07615 -9.002713 298.5837 350.8681 -0.9664098 71.87435 5.770304 -4.111505 284.494 352.6953 -254.6048 83.20191 258.9257
0 0 0 -5.252134 13.62158 4.248357 -0.4401734 10.95719 358.8568 -356.0493 358.6005 0.8472409 -59.6446 345.9993 346.6719 -25.68333 56.90879 303.8149 -306.7814 335.9901 7.851242 -310.8965 43.11506 30.56936 -12.24383 309.7147 351.1963 -354.3873 59.49332 1.529564 -11.50861 285.0486 347.6033 -264.2982 78.79253 271.0288
0 0 0 -5.290617 11.71634 5.166339 -1.923026 21.60103 357.6747 -352.5059 352.9474 2.166491 -64.85807 338.7083 342.909 -27.0718 49.44471 318.6642 -302.8031 331.0784 13.24935 -308.0433 38.73358 25.48354 -2.603567 352.4947 359.277 -355.8544 13.52798 0.4871381 -351.4679 355.8144 1.056711 -3.755032 18.9735 359.6495
0 0 0 -5.149704 11.37092 1.855236 -1.015057 13.23317 358.2281 -355.5647 358.1557 0.9206349 -65.0901 340.3665 348.8134 -27.63472 52.96364 319.1408 -305.6444 339.342 4.274699 -312.0786 34.45304 25.4791 -0.1032125 353.4576 359.7091 -2.841671 10.35729 0.5834424 -350.9776 1.921397 0.8391281 -352.9079 15.91277 359.2216
0 0 0 -5.24427 12.95488 5.189085 -0.5883852 9.137305 358.4621 -355.0614 0.6019709 0.9775406 -64.80714 352.4771 344.2755 -9.297489 51.80683 296.4661 -306.1512 336.1621 4.605345 -314.4454 47.26677 34.23151 -12.15949 319.2147 352.7985 -0.560768 53.48674 6.358241 -266.5137 276.2235 84.87965 -255.8312 74.5291 252.2047
0 0 0 -5.005985 11.53502 5.200551 -2.221304 13.00985 358.6415 -353.7896 357.9346 1.340101 -63.69444 351.0179 342.8005 -1.32088 50.92326 289.7014 -304.0952 335.3488 8.329692 -305.2459 50.33348 31.86901 -15.32558 324.1479 352.3459 -350.0827 50.92164 0.894416 -253.5347 279.0864 95.54718 -270.4264 79.6174 263.4917
0 0 0 -3.883121 10.70282 359.0142 -2.665886 12.47654 1.948251 -354.2498 359.916 1.182484 -68.91975 346.0645 346.293 -343.9965 59.65498 269.7057 -304.0435 341.0879 9.004804 -326.2383 52.87554 54.49708 -18.1536 296.7366 345.3352 -21.44897 79.40289 27.77762 -220.483 286.1518 125.4451 -242.7126 69.05618 230.6195
0 0 0 -3.10401 12.28349 8.79107 -1.879086 13.21262 356.0479 -355.7147 359.5213 0.9664875 -63.9556 354.1277 340.7481 -1.617742 49.22372 288.2346 -301.5471 331.1796 5.614124 -318.1275 53.44803 36.6003 -25.61956 323.0781 348.4548 -345.2676 62.41142 1.113808 -241.0927 277.8215 112.11 -259.7924 67.80045 254.9662
0 0 0 -2.42097 12.72452 359.2414 -2.697334 9.328711 1.313617 -355.6797 4.802993 0.8755577 -69.39027 348.7265 344.6158 -320.5035 52.78003 242.8992 -302.4158 343.0408 10.4783 -344.8824 51.60309 69.66646 -25.91858 295.592 340.2951 -4.348402 76.15955 12.64524 -215.7378 291.0623 129.9675 -239.5519 62.58916 224.0076
0 0 0 -1.903453 12.77972 4.082259 -1.752247 10.22249 358.809 -355.3605 2.108399 0.9239318 -68.95059 353.0147 343.2734 -329.0554 50.57873 252.9429 -303.2891 336.9771 7.69638 -342.8883 60.05578 71.58582 -29.1657 294.1219 338.4666 -1.057858 82.03247 10.15881 -229.3961 286.9254 118.4022 -236.7781 60.36921 222.6342
0 0 0 -2.866988 12.49527 8.852156 -358.8746 9.126568 358.1313 -355.7403 5.083025 0.6652134 -62.98243 359.2996 343.0032 -4.047598 53.27823 279.3445 -307.1573 330.7582 4.913698 -336.8475 65.08067 65.9477 -28.10828 293.1446 338.9982 -359.5539 81.5471 8.024504 -221.4494 288.2638 126.7828 -248.3868 59.32056 234.7005
0 0 0 -359.9201 14.80642 5.249182 -2.622568 9.492689 357.6699 -356.3983 1.206857 0.7573295 -71.46062 353.5909 342.9276 -328.795 54.81849 250.0272 -302.8712 333.8833 5.355679 -336.6157 59.41888 60.18848 -35.24227 293.2011 334.928 -0.5437204 84.24902 10.3379 -235.8475 286.7769 114.1255 -242.9339 62.89933 229.1674
0 0 0 -0.1658531 11.91745 9.128163 -2.520258 10.49453 357.1777 -356.5509 2.809899 0.6421629 -65.14753 2.113529 339.6416 -311.1786 29.95649 232.8128 -304.8458 330.0896 3.603611 -334.0673 66.79955 62.90918 -33.74614 293.6044 336.8187 -2.732458 83.99452 12.1741 -238.1125 285.4138 112.3175 -245.3739 59.87564 232.0029
0 0 0 -0.4465437 14.80793 8.975648 -1.002281 8.897847 356.3505 -358.3584 1.768517 0.3281412 -69.27515 358.2318 341.9783 -310.277 35.91017 229.3419 -302.4654 329.7008 2.955313 -346.9541 67.98883 74.15859 -36.90648 291.358 333.2829 -345.7799 88.25101 355.6974 -252.7678 282.4683 99.52959 -234.6238 57.43993 223.9758
0 0 0 -1.728938 12.45038 12.47375 -1.021899 11.51309 356.0056 -357.4866 357.859 0.5464563 -64.89841 2.010654 341.7386 -331.6705 47.80865 247.8378 -305.4353 324.4841 1.081527 -302.8801 63.32209 27.12558 -34.55108 299.1636 337.563 -335.5904 79.48545 348.5802 -282.7374 283.9143 67.41891 -239.5685 60.89797 228.8789
0 0 0 -1.036548 13.85494 13.02472 -1.526186 7.651602 355.1234 -356.4401 358.4529 0.7010556 -66.58191 6.303582 339.9541 -329.9063 47.38948 247.9895 -303.3726 328.1742 3.598437 -307.0562 60.33474 28.26015 -34.57479 297.7729 337.5323 -342.5995 80.46143 354.2204 -279.3664 283.5868 72.03982 -243.2227 64.39616 232.6306
0 0 0 -1.6841 16.13364 12.90216 -0.8634132 7.810426 355.2572 -356.2788 359.9888 0.7886151 -69.42273 3.906519 340.5491 -332.5917 48.68594 254.0292 -300.0665 327.4098 7.249208 -313.6116 67.77278 39.74081 -43.28983 294.1929 329.2617 -297.1361 85.26282 311.0878 -260.4692 285.0735 89.87637 -220.9777 64.60352 206.5377
0 0 0 -3.275445 12.94319 14.33393 -359.0241 7.138805 355.031 -354.9765 359.8063 0.9150893 -66.68813 7.358159 341.3266 -330.702 45.94885 249.547 -302.1021 328.1622 4.233395 -318.5361 66.19877 41.6662 -34.06717 293.7547 335.2928 -316.1722 86.96946 327.4894 -271.8021 283.6714 77.40833 -234.8148 68.58567 223.0293
0 0 0 -3.906839 13.80467 13.37986 -359.0199 6.020398 355.5356 -355.3228 0.9951573 0.8094158 -66.54788 6.527913 341.339 -332.0886 46.92626 251.2635 -300.8179 330.7219 7.186928 -323.8937 67.75107 50.59239 -36.55699 292.5182 332.3853 -292.158 86.00492 304.3735 -258.7524 284.2182 89.59301 -226.1518 65.40096 213.0609
0 0 0 -2.624749 12.3951 12.59544 -0.3971698 8.078125 355.7307 -355.0129 359.7642 0.9153773 -66.83692 6.350528 340.7403 -330.6157 47.632 249.9865 -302.9572 329.3132 3.860948 -323.8459 67.88275 50.89736 -34.34024 294.7814 335.6343 -340.6086 85.59847 351.9639 -265.0204 283.6011 84.13573 -226.1554 62.37028 213.3315
0 0 0 -2.770717 13.38264 13.41586 -0.3818059 8.194141 355.0757 -355.0849 359.5008 0.9575225 -66.08896 6.085917 339.5564 -329.3267 47.00932 247.8566 -304.8328 328.4173 4.590031 -302.3495 65.28365 32.24617 -39.89487 295.294 331.7304 -288.9491 84.27033 303.5092 -273.1603 283.811 76.36791 -237.6169 63.82159 226.1713
0 0 0 -2.869122 14.82738 14.25817 -1.895642 5.85309 353.0222 -353.6617 359.0529 1.174884 -64.38682 7.866055 335.8282 -330.0682 51.15495 245.6013 -304.5234 331.0807 3.974194 -286.8124 50.19381 12.20014 -14.46859 321.4592 353.5936 -359.1218 49.17518 4.076653 -298.686 286.2281 51.55243 -290.5898 66.04166 283.7675
0 0 0 -1.929722 14.42759 12.58149 -3.082521 7.381194 353.2316 -353.1469 357.5046 1.348607 -65.76794 5.045295 336.3339 -0.9305218 58.85022 277.1468 -303.5921 332.4326 4.631663 -293.4759 47.62056 15.24618 -19.01569 325.2868 352.282 -352.4815 48.69845 1.822713 -303.6594 289.1816 45.65649 -289.4869 67.55425 281.3442
0 0 0 -2.394391 12.89367 14.26882 -2.77439 8.036904 354.5833 -356.0389 359.1635 0.7274185 -65.17707 8.736196 338.8893 -6.85973 48.05649 290.3732 -299.0797 328.3576 4.148079 -297.2484 52.49561 13.74711 -14.91972 326.459 354.2209 -357.6523 49.32642 3.716244 -309.459 287.549 41.12328 -289.2399 66.87389 283.0985
0 0 0 -3.157147 12.7761 13.39939 -2.29853 7.410453 355.0378 -354.8592 359.3285 0.9230419 -65.42457 8.677053 338.6213 -345.6115 49.31504 268.623 -300.2187 329.8257 4.074666 -300.6033 54.70987 19.46311 -12.63088 325.1564 354.7089 -0.1514692 48.47771 4.595833 -305.9367 287.0736 43.66034 -286.864 67.13711 280.4089
0 0 0 -3.930705 12.82725 13.7098 -1.781373 7.21448 354.7184 -356.1251 358.3939 0.6814414 -63.09116 7.527768 338.6864 -14.25585 50.22657 293.7614 -302.1609 330.3317 4.418469 -294.5203 49.87491 14.27501 -13.41712 320.3116 353.5342 -358.51 53.79565 4.262584 -286.81 287.9058 59.41587 -290.7371 70.3043 279.9223
0 0 0 -3.56381 12.8975 13.52151 -359.864 6.723837 355.8425 -356.9089 1.074106 0.5342734 -66.85851 7.695568 341.9051 -355.9871 51.65168 276.0184 -302.1278 328.4179 3.406903 -313.4633 64.53457 36.13237 -30.91968 294.5039 337.5679 -329.7531 86.8166 340.4286 -272.0086 282.5556 77.66681 -247.8946 67.44737 238.2249
0 0 0 -2.355224 14.02088 12.34861 -1.250886 5.982954 356.0459 -357.9265 0.9933236 0.3669846 -68.86121 7.766543 341.0593 -326.133 49.73007 244.8232 -299.8188 330.2371 5.341382 -326.516 65.93741 49.06114 -37.48104 294.1213 333.1692 -297.2776 87.98997 309.5417 -271.5849 283.6561 78.382 -244.4584 68.20528 233.4003
0 0 0 -1.917718 14.33573 11.99591 -1.17019 6.879186 355.0248 -355.1477 359.3282 0.924709 -69.0444 4.377135 340.9284 -325.5717 51.6881 242.8984 -302.6183 330.5984 4.113733 -314.4154 65.93018 41.64963 -37.5741 294.1948 333.3522 -320.4719 87.54505 332.4404 -271.1019 283.743 79.18756 -243.259 67.12061 232.0493
0 0 0 -1.030719 15.71959 13.34715 -3.512678 7.233741 353.3385 -354.0334 358.5292 1.21554 -68.29942 6.263349 337.0532 -347.6456 54.25552 269.4863 -302.2235 329.2145 3.604351 -297.0391 52.37562 16.71346 -23.4188 320.3127 349.7218 -349.813 53.22902 0.769436 -305.4199 285.8645 47.26228 -285.2762 67.58139 278.9668
0 0 0 -0.9968846 14.75775 7.554255 -2.466182 5.273697 356.1219 -357.1376 359.0139 0.5009405 -72.16736 2.033698 339.9865 -315.62 48.49249 238.7994 -300.5869 337.5283 5.783545 -353.9338 62.15715 80.60964 -42.8796 293.3983 328.845 -314.6043 86.69957 327.8312 -260.083 286.564 87.91158 -237.3458 63.09169 222.4188
